<mxfile host="Electron" modified="2023-04-25T00:16:48.349Z" agent="Mozilla/5.0 (Windows NT 10.0; Win64; x64) AppleWebKit/537.36 (KHTML, like Gecko) draw.io/21.1.2 Chrome/106.0.5249.199 Electron/21.4.3 Safari/537.36" etag="7SsNd0vC56N6lYnhQK4B" version="21.1.2" type="device">
  <diagram name="Página-1" id="U5fRExajESI0WydMFek7">
    <mxGraphModel dx="1114" dy="664" grid="1" gridSize="10" guides="1" tooltips="1" connect="1" arrows="1" fold="1" page="1" pageScale="1" pageWidth="827" pageHeight="1169" math="0" shadow="0">
      <root>
        <mxCell id="0" />
        <mxCell id="1" parent="0" />
        <mxCell id="TmKTfqlGSh4HAsZBzpyZ-8" style="edgeStyle=orthogonalEdgeStyle;rounded=0;orthogonalLoop=1;jettySize=auto;html=1;entryX=1;entryY=0.5;entryDx=0;entryDy=0;" edge="1" parent="1" source="TmKTfqlGSh4HAsZBzpyZ-1" target="TmKTfqlGSh4HAsZBzpyZ-5">
          <mxGeometry relative="1" as="geometry" />
        </mxCell>
        <mxCell id="TmKTfqlGSh4HAsZBzpyZ-14" style="edgeStyle=orthogonalEdgeStyle;rounded=0;orthogonalLoop=1;jettySize=auto;html=1;entryX=1;entryY=0.5;entryDx=0;entryDy=0;" edge="1" parent="1" source="TmKTfqlGSh4HAsZBzpyZ-1" target="TmKTfqlGSh4HAsZBzpyZ-11">
          <mxGeometry relative="1" as="geometry" />
        </mxCell>
        <mxCell id="TmKTfqlGSh4HAsZBzpyZ-20" style="edgeStyle=orthogonalEdgeStyle;rounded=0;orthogonalLoop=1;jettySize=auto;html=1;entryX=1;entryY=0.5;entryDx=0;entryDy=0;" edge="1" parent="1" source="TmKTfqlGSh4HAsZBzpyZ-1" target="TmKTfqlGSh4HAsZBzpyZ-19">
          <mxGeometry relative="1" as="geometry" />
        </mxCell>
        <mxCell id="TmKTfqlGSh4HAsZBzpyZ-1" value="Plataforma" style="shape=umlActor;verticalLabelPosition=bottom;verticalAlign=top;html=1;outlineConnect=0;" vertex="1" parent="1">
          <mxGeometry x="530" y="310" width="30" height="60" as="geometry" />
        </mxCell>
        <mxCell id="TmKTfqlGSh4HAsZBzpyZ-7" style="edgeStyle=orthogonalEdgeStyle;rounded=0;orthogonalLoop=1;jettySize=auto;html=1;entryX=0;entryY=0.5;entryDx=0;entryDy=0;" edge="1" parent="1" source="TmKTfqlGSh4HAsZBzpyZ-2" target="TmKTfqlGSh4HAsZBzpyZ-5">
          <mxGeometry relative="1" as="geometry" />
        </mxCell>
        <mxCell id="TmKTfqlGSh4HAsZBzpyZ-10" style="edgeStyle=orthogonalEdgeStyle;rounded=0;orthogonalLoop=1;jettySize=auto;html=1;entryX=0;entryY=0.5;entryDx=0;entryDy=0;" edge="1" parent="1" source="TmKTfqlGSh4HAsZBzpyZ-2" target="TmKTfqlGSh4HAsZBzpyZ-9">
          <mxGeometry relative="1" as="geometry" />
        </mxCell>
        <mxCell id="TmKTfqlGSh4HAsZBzpyZ-16" style="edgeStyle=orthogonalEdgeStyle;rounded=0;orthogonalLoop=1;jettySize=auto;html=1;entryX=0;entryY=0.5;entryDx=0;entryDy=0;" edge="1" parent="1" source="TmKTfqlGSh4HAsZBzpyZ-2" target="TmKTfqlGSh4HAsZBzpyZ-15">
          <mxGeometry relative="1" as="geometry" />
        </mxCell>
        <mxCell id="TmKTfqlGSh4HAsZBzpyZ-22" style="edgeStyle=orthogonalEdgeStyle;rounded=0;orthogonalLoop=1;jettySize=auto;html=1;entryX=0;entryY=0.5;entryDx=0;entryDy=0;" edge="1" parent="1" source="TmKTfqlGSh4HAsZBzpyZ-2" target="TmKTfqlGSh4HAsZBzpyZ-17">
          <mxGeometry relative="1" as="geometry" />
        </mxCell>
        <mxCell id="TmKTfqlGSh4HAsZBzpyZ-23" style="edgeStyle=orthogonalEdgeStyle;rounded=0;orthogonalLoop=1;jettySize=auto;html=1;entryX=0;entryY=0.5;entryDx=0;entryDy=0;" edge="1" parent="1" source="TmKTfqlGSh4HAsZBzpyZ-2" target="TmKTfqlGSh4HAsZBzpyZ-18">
          <mxGeometry relative="1" as="geometry" />
        </mxCell>
        <mxCell id="TmKTfqlGSh4HAsZBzpyZ-24" style="edgeStyle=orthogonalEdgeStyle;rounded=0;orthogonalLoop=1;jettySize=auto;html=1;entryX=0;entryY=0.5;entryDx=0;entryDy=0;" edge="1" parent="1" source="TmKTfqlGSh4HAsZBzpyZ-2" target="TmKTfqlGSh4HAsZBzpyZ-21">
          <mxGeometry relative="1" as="geometry" />
        </mxCell>
        <mxCell id="TmKTfqlGSh4HAsZBzpyZ-26" style="edgeStyle=orthogonalEdgeStyle;rounded=0;orthogonalLoop=1;jettySize=auto;html=1;entryX=0;entryY=0.5;entryDx=0;entryDy=0;" edge="1" parent="1" source="TmKTfqlGSh4HAsZBzpyZ-2" target="TmKTfqlGSh4HAsZBzpyZ-25">
          <mxGeometry relative="1" as="geometry" />
        </mxCell>
        <mxCell id="TmKTfqlGSh4HAsZBzpyZ-28" style="edgeStyle=orthogonalEdgeStyle;rounded=0;orthogonalLoop=1;jettySize=auto;html=1;entryX=0;entryY=0.5;entryDx=0;entryDy=0;" edge="1" parent="1" source="TmKTfqlGSh4HAsZBzpyZ-2" target="TmKTfqlGSh4HAsZBzpyZ-27">
          <mxGeometry relative="1" as="geometry" />
        </mxCell>
        <mxCell id="TmKTfqlGSh4HAsZBzpyZ-2" value="Usuário" style="shape=umlActor;verticalLabelPosition=bottom;verticalAlign=top;html=1;outlineConnect=0;" vertex="1" parent="1">
          <mxGeometry x="130" y="310" width="30" height="60" as="geometry" />
        </mxCell>
        <mxCell id="TmKTfqlGSh4HAsZBzpyZ-5" value="Cadastro" style="ellipse;whiteSpace=wrap;html=1;" vertex="1" parent="1">
          <mxGeometry x="280" y="90" width="160" height="60" as="geometry" />
        </mxCell>
        <mxCell id="TmKTfqlGSh4HAsZBzpyZ-9" value="Login" style="ellipse;whiteSpace=wrap;html=1;" vertex="1" parent="1">
          <mxGeometry x="280" y="170" width="160" height="60" as="geometry" />
        </mxCell>
        <mxCell id="TmKTfqlGSh4HAsZBzpyZ-11" value="Recolher/armazenar informações" style="ellipse;whiteSpace=wrap;html=1;" vertex="1" parent="1">
          <mxGeometry x="280" y="240" width="160" height="60" as="geometry" />
        </mxCell>
        <mxCell id="TmKTfqlGSh4HAsZBzpyZ-15" value="informações pessoais" style="ellipse;whiteSpace=wrap;html=1;" vertex="1" parent="1">
          <mxGeometry x="280" y="310" width="160" height="60" as="geometry" />
        </mxCell>
        <mxCell id="TmKTfqlGSh4HAsZBzpyZ-17" value="trabalho voluntario" style="ellipse;whiteSpace=wrap;html=1;" vertex="1" parent="1">
          <mxGeometry x="280" y="450" width="160" height="60" as="geometry" />
        </mxCell>
        <mxCell id="TmKTfqlGSh4HAsZBzpyZ-18" value="Certificações" style="ellipse;whiteSpace=wrap;html=1;" vertex="1" parent="1">
          <mxGeometry x="280" y="585" width="160" height="60" as="geometry" />
        </mxCell>
        <mxCell id="TmKTfqlGSh4HAsZBzpyZ-19" value="Publica currículo" style="ellipse;whiteSpace=wrap;html=1;" vertex="1" parent="1">
          <mxGeometry x="280" y="660" width="160" height="60" as="geometry" />
        </mxCell>
        <mxCell id="TmKTfqlGSh4HAsZBzpyZ-21" value="Saída de conta" style="ellipse;whiteSpace=wrap;html=1;" vertex="1" parent="1">
          <mxGeometry x="280" y="735" width="160" height="60" as="geometry" />
        </mxCell>
        <mxCell id="TmKTfqlGSh4HAsZBzpyZ-25" value="formação academica" style="ellipse;whiteSpace=wrap;html=1;" vertex="1" parent="1">
          <mxGeometry x="280" y="380" width="160" height="60" as="geometry" />
        </mxCell>
        <mxCell id="TmKTfqlGSh4HAsZBzpyZ-27" value="experiências profissionais" style="ellipse;whiteSpace=wrap;html=1;" vertex="1" parent="1">
          <mxGeometry x="280" y="520" width="160" height="60" as="geometry" />
        </mxCell>
      </root>
    </mxGraphModel>
  </diagram>
</mxfile>
